<svg width="100" height="100" viewBox="0 0 100 100" fill="none" xmlns="http://www.w3.org/2000/svg">
<path d="M55 7.50555L84.3013 24.4226C87.3953 26.209 89.3013 29.5102 89.3013 33.0829V66.9171C89.3013 70.4898 87.3953 73.791 84.3013 75.5773L55 92.4944C51.906 94.2808 48.094 94.2808 45 92.4944L15.6987 75.5774C12.6047 73.791 10.6987 70.4898 10.6987 66.9171V33.0829C10.6987 29.5103 12.6047 26.209 15.6987 24.4226L45 7.50555C48.094 5.71923 51.906 5.71923 55 7.50555Z" stroke="#4CC8B2" stroke-width="8"/>
<path d="M32.0916 33.4545H41.2198L50.0092 50.0547H50.3857L59.1751 33.4545H68.3033L54.244 58.3736V72H46.1509V58.3736L32.0916 33.4545Z" fill="#4CC8B2"/>
</svg>
